<svg xmlns="http://www.w3.org/2000/svg" width="37" height="37" fill="none" viewBox="0 0 37 37"><path fill="#3DBF94" d="M18.6052 36.6215C28.5815 36.6215 36.6688 28.5342 36.6688 18.558C36.6688 8.58177 28.5815 0.494446 18.6052 0.494446C8.62901 0.494446 0.541687 8.58177 0.541687 18.558C0.541687 28.5342 8.62901 36.6215 18.6052 36.6215Z"/><path fill="#fff" d="M26.0738 13.8062L26.3993 15.0429C26.4318 15.5637 25.9924 15.9217 25.6181 15.8892C25.6181 15.8892 20.8988 16.0519 17.4326 15.8892C17.4326 15.938 17.4326 15.9868 17.4489 16.0519C17.4489 16.1007 17.4651 16.1495 17.4651 16.2146C20.85 17.0283 25.846 18.6719 25.846 18.6719C26.1389 18.8347 26.0901 19.1764 25.8785 19.7297L25.4066 20.9177C25.1137 21.3896 24.5604 21.5035 24.2349 21.3408C24.2349 21.3408 20.5245 19.7297 17.6767 18.2163C18.0998 22.9193 18.4578 29.4775 17.1234 28.7615C15.6588 27.9641 12.8923 17.6142 12.3715 15.6451C12.3227 15.4335 12.2739 15.222 12.3227 15.0104C12.7946 12.9437 18.4578 10.3562 21.4033 9.00549C22.0705 8.69629 22.6075 8.45219 22.9005 8.30573C23.2422 8.20809 23.5351 8.43592 23.9745 8.90785L24.8858 9.93308C25.1788 10.405 24.9672 10.8607 24.6255 10.9583C24.6255 10.9583 20.4594 12.6507 17.2373 13.676C17.2373 13.7248 17.2536 13.7899 17.2536 13.8713C17.2698 13.9363 17.2698 14.0177 17.2861 14.1316C20.7035 13.4644 25.4391 12.8948 25.4391 12.8948C25.7646 12.9111 25.9111 13.2203 26.0738 13.8062Z"/></svg>