<svg xmlns="http://www.w3.org/2000/svg" width="256" height="256" viewBox="0 0 100 100"><rect width="100" height="100" rx="50" fill="#111111"></rect><path fill="#ffffff" d="M64.16 73.87Q64.47 73.87 64.47 74.34Q64.47 74.80 64.16 74.80L64.16 74.80Q62.68 74.80 59.56 74.65L59.56 74.65Q56.44 74.49 54.95 74.49L54.95 74.49Q53.16 74.49 50.51 74.65L50.51 74.65Q48.01 74.80 46.61 74.80L46.61 74.80Q46.30 74.80 46.30 74.34Q46.30 73.87 46.61 73.87L46.61 73.87Q49.42 73.87 50.62 73.36Q51.83 72.85 51.83 71.53L51.83 71.53Q51.83 70.36 50.74 68.02L50.74 68.02L44.03 53.98L25.39 53.98L20.79 64.66Q19.78 67.00 19.78 68.95L19.78 68.95Q19.78 73.87 27.34 73.87L27.34 73.87Q27.73 73.87 27.73 74.34Q27.73 74.80 27.34 74.80L27.34 74.80Q25.94 74.80 23.29 74.65L23.29 74.65Q20.32 74.49 18.14 74.49L18.14 74.49Q16.19 74.49 13.38 74.65L13.38 74.65Q11.04 74.80 9.40 74.80L9.40 74.80Q9.01 74.80 9.01 74.34Q9.01 73.87 9.40 73.87L9.40 73.87Q11.59 73.87 13.11 73.05Q14.63 72.23 16.03 70.12Q17.44 68.02 19.15 63.96L19.15 63.96L35.61 25.43Q35.77 25.20 36.23 25.20L36.23 25.20Q36.70 25.20 36.78 25.43L36.78 25.43L55.34 64.12Q58.00 69.81 59.87 71.84Q61.74 73.87 64.16 73.87L64.16 73.87ZM34.20 33.46L26.09 52.34L43.25 52.34L34.20 33.46ZM86.08 43.99Q87.79 43.99 89.39 45.01Q90.99 46.02 90.99 47.43L90.99 47.43Q90.99 48.52 90.25 49.26Q89.51 50 88.26 50L88.26 50Q87.48 50 86.93 49.69Q86.39 49.38 85.69 48.75L85.69 48.75Q84.91 48.13 84.32 47.82Q83.73 47.50 82.88 47.50L82.88 47.50Q81.86 47.50 80.81 48.28Q79.76 49.06 77.42 51.72L77.42 51.72L77.42 68.49Q77.42 70.75 78.00 71.88Q78.59 73.01 80.15 73.44Q81.71 73.87 84.91 73.87L84.91 73.87Q85.14 73.87 85.14 74.34Q85.14 74.80 84.91 74.80L84.91 74.80Q82.33 74.80 80.77 74.73L80.77 74.73L74.92 74.65L70.71 74.73Q69.62 74.80 67.75 74.80L67.75 74.80Q67.51 74.80 67.51 74.34Q67.51 73.87 67.75 73.87L67.75 73.87Q69.77 73.87 70.75 73.44Q71.72 73.01 72.07 71.88Q72.42 70.75 72.42 68.49L72.42 68.49L72.42 53.20Q72.42 50.62 71.80 49.45Q71.18 48.28 69.77 48.28L69.77 48.28Q68.60 48.28 65.64 49.45L65.64 49.45L65.56 49.45Q65.25 49.45 65.09 49.10Q64.94 48.75 65.25 48.60L65.25 48.60L74.61 44.07L75.08 43.99Q75.86 43.99 76.60 45.75Q77.34 47.50 77.42 50.31L77.42 50.31Q80.62 46.65 82.49 45.32Q84.36 43.99 86.08 43.99L86.08 43.99Z"></path></svg>