<svg xmlns="http://www.w3.org/2000/svg" viewBox="0 0 100 100"><circle cx="50" cy="50" r="50" fill="#a24f27"/><path fill="#f7f6f2" d="M23.17 76Q22.09 76 22.09 75.28Q22.09 74.56 23.1 74.34L24.18 74.12Q25.62 73.83 26.35 72.71Q27.07 71.59 27.58 69.57L38.77 24.43Q38.91 23.71 39.24 23.49Q39.56 23.28 39.85 23.28Q40.21 23.28 40.54 23.49Q40.86 23.71 41.01 24.43L52.42 70.22Q52.92 72.24 53.57 73.04Q54.22 73.83 55.6 74.12L56.68 74.34Q57.69 74.56 57.69 75.28Q57.69 76 56.61 76H44.26Q43.25 76 43.25 75.21Q43.25 74.41 44.48 74.34L45.85 74.19Q47.08 74.05 47.4 73.4Q47.72 72.75 47.36 71.16L44.62 59.97Q44.19 58.09 42.24 58.09H34.65Q32.77 58.09 32.27 59.97L29.81 69.64Q28.73 73.76 31.98 74.19L33.06 74.34Q34.29 74.56 34.29 75.21Q34.29 76 33.28 76ZM34.44 55.92H42.38Q43.54 55.92 43.32 54.69L38.7 35.34H38.34L33.5 54.69Q33.28 55.92 34.44 55.92ZM66.07 43.79Q69.03 38.73 73.22 38.73Q75.6 38.73 76.76 40.14Q77.91 41.55 77.91 43.28Q77.91 44.66 77.23 45.52Q76.54 46.39 75.1 46.39Q73.94 46.39 73.4 45.85Q72.86 45.31 72.53 44.58Q72.21 43.86 71.78 43.32Q71.34 42.78 70.33 42.78Q69.03 42.78 67.88 44.33Q66.72 45.88 65.96 48.48Q65.2 51.08 65.2 54.41V71.16Q65.2 72.68 65.67 73.33Q66.14 73.98 67.66 74.12L69.61 74.34Q70.4 74.48 70.4 75.13Q70.4 76 69.32 76H57.11Q56.03 76 56.03 75.21Q56.03 74.56 56.97 74.34L57.84 74.19Q59.35 73.91 59.82 73.29Q60.29 72.68 60.29 71.16V46.89Q60.29 45.59 59.89 45.12Q59.5 44.66 58.49 44.51L56.97 44.29Q56.03 44.22 56.03 43.5Q56.03 42.92 57.19 42.71Q59.42 42.34 60.62 41.55Q61.81 40.76 63.11 39.6Q63.76 38.95 64.19 38.95Q64.84 38.95 64.84 39.82V43.72Q64.84 44.22 65.28 44.33Q65.71 44.44 66.07 43.79Z"/></svg>
