<?xml version="1.0" standalone="no"?>
<!DOCTYPE svg PUBLIC "-//W3C//DTD SVG 20010904//EN"
 "http://www.w3.org/TR/2001/REC-SVG-20010904/DTD/svg10.dtd">
<svg version="1.0" xmlns="http://www.w3.org/2000/svg"
 width="700.000000pt" height="700.000000pt" viewBox="0 0 700.000000 700.000000"
 preserveAspectRatio="xMidYMid meet">
<metadata>
Created by potrace 1.14, written by Peter Selinger 2001-2017
</metadata>
<g transform="translate(0.000000,700.000000) scale(0.100000,-0.100000)"
fill="#000000" stroke="none">
<path d="M3300 6994 c-283 -24 -447 -49 -649 -99 -805 -199 -1513 -680 -1999
-1358 -247 -344 -439 -758 -541 -1165 -79 -312 -105 -533 -105 -872 0 -339 26
-560 105 -872 100 -399 293 -818 530 -1150 394 -552 938 -981 1554 -1226 833
-331 1757 -334 2595 -7 134 52 395 181 525 260 644 390 1156 995 1433 1690
172 432 246 825 246 1305 0 484 -73 868 -247 1305 -473 1190 -1559 2019 -2842
2170 -125 15 -512 27 -605 19z m-738 -1766 c9 -7 312 -629 673 -1383 750
-1563 774 -1613 866 -1751 108 -161 198 -232 325 -256 87 -16 86 -15 82 -45
l-3 -28 -185 5 c-102 3 -313 5 -470 5 -157 0 -357 -2 -445 -5 l-160 -5 0 30 0
30 105 8 c180 13 250 44 270 118 23 86 0 147 -303 779 l-233 485 -654 0 -654
0 -173 -400 c-199 -462 -217 -518 -211 -655 3 -82 7 -102 31 -142 66 -113 189
-168 413 -185 98 -8 99 -8 102 -35 2 -19 -2 -28 -16 -32 -11 -4 -107 -2 -213
4 -253 13 -612 13 -855 -1 -209 -11 -228 -8 -222 35 3 18 12 22 73 28 38 4 89
12 114 18 160 40 284 175 423 460 28 58 320 735 649 1505 329 770 606 1406
616 1413 9 6 22 12 28 12 6 0 19 -6 27 -12z m2722 -1314 c24 -9 72 -93 95
-165 12 -36 27 -109 34 -163 l12 -97 112 120 c134 142 244 233 333 275 58 28
75 31 160 31 87 0 101 -3 168 -34 160 -75 216 -203 136 -308 -50 -65 -152 -91
-230 -58 -20 8 -64 37 -97 64 -89 70 -136 91 -202 91 -91 0 -162 -47 -306
-204 l-80 -87 3 -662 c4 -738 2 -721 74 -792 58 -58 177 -87 409 -98 48 -2 50
-3 50 -31 l0 -30 -609 1 c-635 1 -630 1 -619 43 4 14 20 18 81 23 135 11 185
35 222 107 34 67 40 182 40 810 -1 658 -5 727 -53 799 -55 83 -128 89 -321 25
-98 -32 -117 -36 -131 -24 -9 7 -15 20 -13 28 3 17 661 340 695 341 12 1 28
-2 37 -5z"/>
<path d="M2387 4639 c-3 -8 -129 -302 -281 -654 l-275 -640 591 -3 c325 -1
593 0 595 2 3 3 -559 1185 -610 1281 -10 19 -16 23 -20 14z"/>
</g>
</svg>
